<?xml version="1.0" encoding="UTF-8" standalone="no"?>
<svg
   version="1.1"
   width="0.58907962in"
   height="0.42862615in"
   viewBox="0 0 42.413784 30.861144"
   id="svg330"
   xmlns="http://www.w3.org/2000/svg"
   xmlns:svg="http://www.w3.org/2000/svg">
  <defs
     id="defs334" />
  <path
     d="m 0.40086116,15.436353 3.46360004,3.4636 3.4636,-3.4636 -3.4636,-3.4636 z"
     style="fill:none;stroke:#1b1918;stroke-width:0.5669;stroke-linecap:butt;stroke-linejoin:miter;stroke-dasharray:none"
     id="path309" />
  <path
     d="m 11.961061,26.996653 3.4636,3.4636 3.4636,-3.4636 -3.4636,-3.4636 z"
     style="fill:none;stroke:#1b1918;stroke-width:0.5669;stroke-linecap:butt;stroke-linejoin:miter;stroke-dasharray:none"
     id="path311" />
  <path
     d="M 3.8722612,11.964953 15.417561,0.41955293 18.881161,3.8831529 7.3358612,15.428553 Z"
     style="fill:none;stroke:currentColor;stroke-width:0.5669;stroke-linecap:butt;stroke-linejoin:miter;stroke-dasharray:none"
     id="path313" />
  <path
     d="m 23.532961,3.8644529 3.4636,3.4636 3.4636,-3.4636 -3.4636,-3.46359997 z"
     style="fill:none;stroke:#1b1918;stroke-width:0.5669;stroke-linecap:butt;stroke-linejoin:miter;stroke-dasharray:none"
     id="path315" />
  <path
     d="m 15.426161,23.531553 11.5453,-11.5454 3.4636,3.4637 -11.5453,11.5454 z"
     style="fill:none;stroke:currentColor;stroke-width:0.5669;stroke-linecap:butt;stroke-linejoin:miter;stroke-dasharray:none"
     id="path317" />
  <path
     d="m 3.8760612,18.911553 8.0816998,8.0817 3.4636,-3.4636 -8.0816998,-8.0818 z"
     style="fill:none;stroke:#1b1918;stroke-width:0.5669;stroke-linecap:butt;stroke-linejoin:miter;stroke-dasharray:none"
     id="path319" />
  <path
     d="m 35.085761,15.417353 3.4636,3.4636 3.4636,-3.4636 -3.4636,-3.4636 z"
     style="fill:none;stroke:#1b1918;stroke-width:0.5669;stroke-linecap:butt;stroke-linejoin:miter;stroke-dasharray:none"
     id="path321" />
  <path
     d="m 26.985961,7.3386529 -11.5453,11.5454001 -3.4636,-3.4636 11.5453,-11.5454001 z"
     style="fill:none;stroke:#1b1918;stroke-width:0.5669;stroke-linecap:butt;stroke-linejoin:miter;stroke-dasharray:none"
     id="path323" />
  <path
     d="m 38.535661,18.894753 -11.5453,11.5454 -3.4635,-3.4637 11.5453,-11.5454 z"
     style="fill:none;stroke:#1b1918;stroke-width:0.5669;stroke-linecap:butt;stroke-linejoin:miter;stroke-dasharray:none"
     id="path325" />
  <path
     d="m 27.009161,7.3407529 8.0817,8.0817001 3.4636,-3.4636 -8.0817,-8.0818001 z"
     style="fill:none;stroke:#1b1918;stroke-width:0.5669;stroke-linecap:butt;stroke-linejoin:miter;stroke-dasharray:none"
     id="path327" />
</svg>
