<?xml version="1.0" encoding="UTF-8" standalone="no"?>
<svg
   version="1.1"
   width="0.97437924in"
   height="0.70695353in"
   viewBox="0 0 70.15539 50.900755"
   id="svg493"
   sodipodi:docname="logo.cdr"
   xmlns:inkscape="http://www.inkscape.org/namespaces/inkscape"
   xmlns:sodipodi="http://sodipodi.sourceforge.net/DTD/sodipodi-0.dtd"
   xmlns="http://www.w3.org/2000/svg"
   xmlns:svg="http://www.w3.org/2000/svg">
  <defs
     id="defs497" />
  <sodipodi:namedview
     id="namedview495"
     pagecolor="#ffffff"
     bordercolor="#666666"
     borderopacity="1.0"
     inkscape:showpageshadow="2"
     inkscape:pageopacity="0.0"
     inkscape:pagecheckerboard="0"
     inkscape:deskcolor="#d1d1d1"
     inkscape:document-units="in"
     showgrid="false" />
  <path
     d="m 0.40085476,25.459955 5.77270004,5.7727 5.7726002,-5.7727 -5.7726002,-5.7727 z"
     style="fill:none;stroke:#9b9d9f;stroke-width:0.5669;stroke-linecap:butt;stroke-linejoin:miter;stroke-dasharray:none"
     id="path468" />
  <path
     d="m 19.667955,44.727155 5.7727,5.7727 5.7726,-5.7727 -5.7726,-5.7727 z"
     style="fill:none;stroke:#9b9d9f;stroke-width:0.5669;stroke-linecap:butt;stroke-linejoin:miter;stroke-dasharray:none"
     id="path470" />
  <path
     d="M 6.1865548,19.674255 25.428755,0.4319552 l 5.7727,5.7727 -19.2423,19.2422998 z"
     style="fill:#ea4335;fill-rule:evenodd;stroke:#565757;stroke-width:0.5669;stroke-linecap:butt;stroke-linejoin:miter;stroke-dasharray:none"
     id="path472" />
  <path
     d="m 38.954455,6.1735552 5.7727,5.7726998 5.7726,-5.7726998 -5.7726,-5.7727 z"
     style="fill:none;stroke:#9b9d9f;stroke-width:0.5669;stroke-linecap:butt;stroke-linejoin:miter;stroke-dasharray:none"
     id="path474" />
  <path
     d="m 25.443055,38.952055 19.2422,-19.2423 5.7727,5.7727 -19.2422,19.2423 z"
     style="fill:#ea4335;fill-rule:evenodd;stroke:#565757;stroke-width:0.5669;stroke-linecap:butt;stroke-linejoin:miter;stroke-dasharray:none"
     id="path476" />
  <path
     d="m 6.1927548,31.251955 13.4696002,13.4696 5.7726,-5.7727 -13.4695,-13.4696 z"
     style="fill:#fbbc05;fill-rule:evenodd;stroke:#565757;stroke-width:0.5669;stroke-linecap:butt;stroke-linejoin:miter;stroke-dasharray:none"
     id="path478" />
  <path
     d="m 58.209155,25.428355 5.7727,5.7727 5.7727,-5.7727 -5.7727,-5.7727 z"
     style="fill:none;stroke:#9b9d9f;stroke-width:0.5669;stroke-linecap:butt;stroke-linejoin:miter;stroke-dasharray:none"
     id="path480" />
  <path
     d="m 44.709455,11.963855 -19.2423,19.2423 -5.7726,-5.7727 19.2422,-19.2422998 z"
     style="fill:#4285f4;fill-rule:evenodd;stroke:#565757;stroke-width:0.5669;stroke-linecap:butt;stroke-linejoin:miter;stroke-dasharray:none"
     id="path482" />
  <path
     d="m 63.959055,31.223955 -19.2422,19.2423 -5.7727,-5.7727 19.2423,-19.2423 z"
     style="fill:#4285f4;fill-rule:evenodd;stroke:#565757;stroke-width:0.5669;stroke-linecap:butt;stroke-linejoin:miter;stroke-dasharray:none"
     id="path484" />
  <path
     d="m 44.748155,11.967255 13.4695,13.4696 5.7727,-5.7727 -13.4696,-13.4695998 z"
     style="fill:#34a853;fill-rule:evenodd;stroke:#565757;stroke-width:0.5669;stroke-linecap:butt;stroke-linejoin:miter;stroke-dasharray:none"
     id="path486" />
</svg>
