<?xml version="1.0" encoding="iso-8859-1"?>
<!-- Uploaded to: SVG Repo, www.svgrepo.com, Generator: SVG Repo Mixer Tools -->
<svg fill="#000" height="800px" width="800px" version="1.1" id="Layer_1" xmlns="http://www.w3.org/2000/svg" xmlns:xlink="http://www.w3.org/1999/xlink"
	 viewBox="0 0 512 512" xml:space="preserve">
<g transform="translate(1 1)">
	<g>
		<g>
			<path d="M491.373-1h-63.147c-10.221,0-18.251,7.251-19.453,17.067h-42.84c-4.274,0-7.351,2.384-8.253,6.149l-27.068,32.481
				C324.667,23.103,296.787-1,263.533-1c-34.615,0-63.406,26.116-67.695,59.614L151.93,20.978c-1.23-3.042-4.078-4.911-7.863-4.911
				h-42.84C100.024,6.251,91.994-1,81.773-1H18.627C7.533-1-1,7.533-1,18.627v11.947C-1,41.667,7.533,50.2,18.627,50.2h63.147
				c10.221,0,18.251-7.251,19.453-17.067h38.858l56.763,48.654c2.517,11.498,7.952,21.931,15.486,30.485v57.394h-10.24
				c-17.92,0-33.28,13.653-34.133,31.573l-13.653,196.267c0,9.387,3.413,18.773,9.387,25.6s15.36,11.093,24.747,11.093h15.36v17.067
				c0,33.28,26.453,59.733,59.733,59.733c33.28,0,59.733-26.453,59.733-59.733V434.2h15.36c9.387,0,18.773-4.267,24.747-10.24
				c6.827-6.827,10.24-16.213,9.387-25.6l-13.653-196.267c-0.853-18.773-16.213-32.427-34.133-32.427h-10.24v-57.394
				c7.584-8.611,13.044-19.125,15.539-30.714l40.354-48.425h38.147c1.203,9.816,9.232,17.067,19.453,17.067h63.147
				C502.467,50.2,511,41.667,511,30.573V18.627C511,7.533,502.467-1,491.373-1z M84.333,30.573c0,1.707-0.853,2.56-2.56,2.56H18.627
				c-1.707,0-2.56-0.853-2.56-2.56V18.627c0-1.707,0.853-2.56,2.56-2.56h63.147c1.707,0,2.56,0.853,2.56,2.56V30.573z
				 M188.44,417.133c-5.12,0-9.387-1.707-12.8-5.12c-2.56-3.413-4.267-8.533-4.267-12.8l13.653-196.267
				c0.853-9.387,7.68-16.213,17.067-16.213h10.24v131.113c-1.064,1.768-2.032,3.602-2.912,5.487
				c-3.901,7.939-5.621,16.45-5.621,25.533v68.267H188.44z M306.2,451.267c0,23.893-18.773,42.667-42.667,42.667
				c-23.893,0-42.667-18.773-42.667-42.667V434.2v-85.333c0-0.631,0.02-1.256,0.046-1.879c0.014-0.326,0.033-0.65,0.055-0.974
				c0.012-0.192,0.028-0.382,0.042-0.573c0.587-7.175,2.996-13.714,6.683-19.614c6.875-10.312,16.522-16.74,27.597-18.852
				c0.265-0.05,0.531-0.094,0.798-0.139c0.521-0.089,1.046-0.169,1.573-0.239c0.314-0.042,0.628-0.082,0.944-0.117
				c0.532-0.059,1.068-0.105,1.606-0.144c0.282-0.021,0.563-0.047,0.846-0.063c0.82-0.045,1.645-0.073,2.476-0.073
				c0.831,0,1.654,0.028,2.473,0.073c0.297,0.016,0.59,0.043,0.886,0.065c0.511,0.038,1.021,0.081,1.528,0.136
				c0.362,0.04,0.722,0.085,1.081,0.134c0.428,0.057,0.853,0.122,1.277,0.192c0.39,0.064,0.78,0.129,1.166,0.203
				c0.382,0.073,0.759,0.159,1.137,0.242c0.405,0.09,0.813,0.173,1.213,0.274c0.287,0.072,0.568,0.159,0.853,0.237
				c0.818,0.224,1.626,0.471,2.423,0.741c0.328,0.111,0.658,0.22,0.983,0.339c0.394,0.144,0.783,0.299,1.171,0.455
				c0.345,0.138,0.689,0.28,1.03,0.427c0.364,0.157,0.726,0.317,1.084,0.483c0.379,0.176,0.753,0.362,1.127,0.55
				c0.316,0.159,0.635,0.313,0.946,0.479c0.639,0.341,1.271,0.697,1.893,1.071c0.298,0.18,0.587,0.373,0.88,0.56
				c0.345,0.219,0.69,0.438,1.029,0.667c0.389,0.264,0.772,0.537,1.152,0.814c0.188,0.136,0.374,0.274,0.56,0.413
				c3.118,2.352,5.891,5.126,8.24,8.246v0.266l0.691,0.691c1.229,1.732,2.331,3.562,3.293,5.48
				c2.396,5.17,3.949,10.416,4.405,15.991c0.015,0.196,0.031,0.392,0.044,0.589c0.022,0.322,0.04,0.644,0.055,0.968
				c0.026,0.624,0.046,1.249,0.046,1.88V434.2V451.267z M324.973,186.733c9.387,0,16.213,6.827,17.067,16.213l13.653,196.267
				c0.853,5.12-0.853,9.387-4.267,12.8c-3.413,3.413-7.68,5.12-12.8,5.12h-15.36v-68.267c0-9.084-1.72-17.594-5.621-25.533
				c-0.88-1.885-1.848-3.719-2.912-5.487V186.733H324.973z M297.667,299.689c-8.426-5.822-18.458-9.513-29.363-10.354
				c-0.057-0.005-0.114-0.008-0.172-0.013c-0.654-0.049-1.308-0.096-1.968-0.124c-0.869-0.04-1.745-0.065-2.63-0.065
				c-0.888,0-1.767,0.025-2.639,0.065c-0.615,0.026-1.224,0.07-1.834,0.114c-0.119,0.009-0.239,0.017-0.357,0.027
				c-9.193,0.718-17.762,3.463-25.272,7.803c-1.359,0.712-2.702,1.456-4.03,2.231V169.667v-43.363
				c10.059,5.854,21.718,9.23,34.133,9.23s24.074-3.375,34.133-9.23v43.363V299.689z M263.533,118.467
				c-28.16,0-51.2-23.04-51.2-51.2c0-28.16,23.04-51.2,51.2-51.2c28.16,0,51.2,23.04,51.2,51.2
				C314.733,95.427,291.693,118.467,263.533,118.467z M493.933,30.573c0,1.707-0.853,2.56-2.56,2.56h-63.147
				c-1.707,0-2.56-0.853-2.56-2.56V18.627c0-1.707,0.853-2.56,2.56-2.56h63.147c1.707,0,2.56,0.853,2.56,2.56V30.573z"/>
			<path d="M263.533,33.133c-18.773,0-34.133,15.36-34.133,34.133c0,5.12,3.413,8.533,8.533,8.533s8.533-3.413,8.533-8.533
				c0-9.387,7.68-17.067,17.067-17.067c5.12,0,8.533-3.413,8.533-8.533S268.653,33.133,263.533,33.133z"/>
		</g>
	</g>
</g>
</svg>
