<?xml version="1.0" encoding="iso-8859-1"?>
<!-- Uploaded to: SVG Repo, www.svgrepo.com, Generator: SVG Repo Mixer Tools -->
<svg fill="#000" height="800px" width="800px" version="1.1" id="Layer_1" xmlns="http://www.w3.org/2000/svg" xmlns:xlink="http://www.w3.org/1999/xlink"
	 viewBox="0 0 512 512" xml:space="preserve">
<g transform="translate(1 1)">
	<g>
		<g>
			<path d="M506.803,365.878V313.25c0.807-2.001,0.757-4.309-0.147-6.499c-1.327-12.868-11.716-22.374-25.033-22.374h-67.148
				c-12.911,0-23.071,8.934-24.889,21.204c-1.04,2.287-1.139,4.728-0.291,6.83v52.628c-0.398,1.085-0.588,2.193-0.57,3.273h-33.003
				V267.59h134.295v-41.967c0-24.983-17.368-44.818-41.967-49.373V91.328c0-5.036-3.357-8.393-8.393-8.393V40.967
				c0-3.357-1.679-5.875-4.197-7.554l-33.574-16.787c-2.518-1.679-5.875-1.679-8.393,0c-2.518,1.679-4.197,5.036-4.197,7.554v58.754
				c-5.036,0-8.393,3.357-8.393,8.393v83.934h-25.18V24.18C355.721,9.911,344.81-1,330.541-1H179.459
				c-14.269,0-25.18,10.911-25.18,25.18v151.082h-25.18V91.328c0-5.036-3.357-8.393-8.393-8.393V24.18
				c0-2.518-1.679-5.875-3.357-7.554c-2.518-0.839-5.875-1.679-8.393,0L75.38,33.413c-3.357,1.679-5.036,4.197-5.036,7.554v41.967
				c-5.036,0-8.393,3.357-8.393,8.393v84.922c-24.599,4.555-41.967,24.39-41.967,49.373v41.967h134.295v100.721h-33.03
				c-0.066-0.81-0.248-1.628-0.543-2.434V313.25c0.807-2.001,0.757-4.309-0.147-6.499c-1.327-12.868-11.716-22.374-25.033-22.374
				H28.377c-12.911,0-23.071,8.933-24.889,21.204c-1.04,2.287-1.139,4.728-0.291,6.83v52.628c-0.761,2.078-0.761,4.239,0,6.127
				v52.628c-0.761,2.078-0.761,4.239,0,6.127v47.507c0,14.269,10.911,25.18,25.18,25.18h67.148c14.269,0,25.18-10.911,25.18-25.18
				v-46.668c0.761-1.888,0.761-4.049,0-6.127v-5.959h33.574v35.252l20.984,41.128c5.036,10.072,14.269,15.948,25.18,15.948h109.115
				c10.911,0,20.984-5.875,25.18-15.948l20.984-41.128v-35.252h33.574v5.12c-0.761,2.078-0.761,4.239,0,6.127v47.507
				c0,14.269,10.911,25.18,25.18,25.18h67.148c14.269,0,25.18-10.911,25.18-25.18v-46.668c0.761-1.888,0.761-4.049,0-6.127v-52.627
				C507.565,370.117,507.565,367.955,506.803,365.878z M448.679,450.707l-42.597-28.398v-3.637v-34.693l36.931,24.621
				c0.692,0.346,1.385,0.689,2.077,0.976c0.521,0.234,1.057,0.412,1.601,0.532c0.052,0.012,0.105,0.025,0.157,0.036
				c0.143,0.028,0.286,0.054,0.43,0.073c0.257,0.036,0.514,0.062,0.771,0.062c0.284,0,0.567-0.03,0.851-0.07
				c0.054-0.008,0.108-0.015,0.162-0.025c1.341-0.216,2.682-0.745,4.023-0.745l36.931-24.621v38.33L448.679,450.707z
				 M443.013,349.846c0.692,0.346,1.385,0.689,2.077,0.976c0.521,0.234,1.057,0.412,1.601,0.532
				c0.052,0.012,0.105,0.025,0.157,0.036c0.143,0.028,0.286,0.054,0.43,0.073c0.257,0.036,0.514,0.062,0.771,0.062
				c0.284,0,0.567-0.03,0.851-0.07c0.054-0.008,0.108-0.015,0.162-0.025c1.341-0.216,2.682-0.745,4.023-0.745l36.931-24.621v38.33
				l-41.338,27.558l-42.597-28.398v-38.33L443.013,349.846z M414.475,301.164h67.148c3.751,0,6.569,1.865,7.763,4.897
				l-40.708,27.138l-41.679-27.786C408.324,302.765,410.999,301.164,414.475,301.164z M406.082,37.61l16.787,8.393v36.931h-16.787
				V37.61z M397.689,99.721h33.574v75.541h-33.574V99.721z M78.738,99.721h33.574v75.541H78.738V99.721z M87.131,46.003
				l16.787-8.393v45.325H87.131V46.003z M62.58,391.953l-42.597-28.398v-38.33l36.931,24.621c0.692,0.346,1.384,0.689,2.077,0.976
				c0.521,0.234,1.057,0.412,1.602,0.532c0.052,0.012,0.104,0.025,0.157,0.036c0.143,0.028,0.286,0.054,0.43,0.073
				c0.257,0.036,0.514,0.062,0.771,0.062c0.284,0,0.567-0.03,0.851-0.07c0.054-0.008,0.108-0.015,0.162-0.024
				c1.341-0.216,2.682-0.745,4.023-0.745l36.931-24.621v38.33L62.58,391.953z M28.377,301.164h67.148
				c3.751,0,6.569,1.865,7.763,4.897L62.58,333.199l-41.679-27.786C22.225,302.765,24.9,301.164,28.377,301.164z M95.525,485.82
				H28.377c-5.036,0-8.393-3.357-8.393-8.393v-34.693l36.931,24.621c0.692,0.346,1.384,0.689,2.077,0.976
				c0.521,0.234,1.057,0.412,1.602,0.532c0.052,0.012,0.104,0.025,0.157,0.036c0.143,0.028,0.286,0.054,0.43,0.073
				c0.257,0.036,0.514,0.062,0.771,0.062c0.284,0,0.567-0.03,0.851-0.07c0.054-0.008,0.108-0.015,0.162-0.024
				c1.341-0.216,2.682-0.745,4.023-0.745l36.931-24.621v33.854C103.918,482.462,100.561,485.82,95.525,485.82z M103.918,423.149
				L62.58,450.707l-42.597-28.398v-38.33L56.915,408.6c0.692,0.346,1.384,0.689,2.077,0.976c0.521,0.234,1.057,0.412,1.602,0.532
				c0.052,0.012,0.104,0.025,0.157,0.036c0.143,0.028,0.286,0.054,0.43,0.073c0.257,0.036,0.514,0.062,0.771,0.062
				c0.284,0,0.567-0.03,0.851-0.07c0.054-0.008,0.108-0.015,0.162-0.024c1.341-0.216,2.682-0.745,4.023-0.745l36.931-24.621v33.854
				V423.149z M120.705,401.885v-16.787h33.574v16.787H120.705z M338.095,450.567l-18.466,37.771
				c-1.679,3.357-5.875,5.875-10.072,5.875H199.603c-4.197,0-8.393-1.679-10.072-5.875l-18.466-37.771v-31.895v-50.361V266.751
				c0-8.393-6.715-15.948-15.948-15.948H36.77v-25.18c0-19.305,15.108-33.574,36.092-33.574h47.843h34.413
				c8.393,0,15.948-6.715,15.948-15.948V24.18c0-5.036,3.357-8.393,8.393-8.393h151.082c5.036,0,8.393,3.357,8.393,8.393v151.921
				c0,8.393,6.715,15.948,15.948,15.948h34.413h47.003h0.839c20.984,0,36.092,14.269,36.092,33.574v25.18H354.043
				c-8.393,0-15.948,6.715-15.948,15.948V450.567z M355.721,401.885v-16.787h33.574v16.787H355.721z M481.623,485.82h-67.148
				c-5.036,0-8.393-3.357-8.393-8.393v-34.693l36.931,24.621c0.692,0.346,1.385,0.689,2.077,0.976
				c0.521,0.234,1.057,0.412,1.601,0.532c0.052,0.012,0.105,0.025,0.157,0.036c0.143,0.028,0.286,0.054,0.43,0.073
				c0.257,0.036,0.514,0.062,0.771,0.062c0.284,0,0.567-0.03,0.851-0.07c0.054-0.008,0.108-0.015,0.162-0.025
				c1.341-0.216,2.682-0.745,4.023-0.745l36.931-24.621v33.854C490.016,482.462,486.659,485.82,481.623,485.82z"/>
			<path d="M271.787,301.164h-33.574c-5.036,0-8.393,3.357-8.393,8.393s3.357,8.393,8.393,8.393h33.574
				c5.036,0,8.393-3.357,8.393-8.393S276.823,301.164,271.787,301.164z"/>
			<path d="M213.033,343.131c0,5.036,3.357,8.393,8.393,8.393h67.148c5.036,0,8.393-3.357,8.393-8.393
				c0-5.036-3.357-8.393-8.393-8.393h-67.148C216.39,334.738,213.033,338.095,213.033,343.131z"/>
			<path d="M271.787,435.459h-33.574c-5.036,0-8.393,3.357-8.393,8.393c0,5.036,3.357,8.393,8.393,8.393h33.574
				c5.036,0,8.393-3.357,8.393-8.393C280.18,438.816,276.823,435.459,271.787,435.459z"/>
			<path d="M288.574,401.885h-67.148c-5.036,0-8.393,3.357-8.393,8.393s3.357,8.393,8.393,8.393h67.148
				c5.036,0,8.393-3.357,8.393-8.393S293.61,401.885,288.574,401.885z"/>
			<path d="M305.361,368.311H204.639c-5.036,0-8.393,3.357-8.393,8.393c0,5.036,3.357,8.393,8.393,8.393h100.721
				c5.036,0,8.393-3.357,8.393-8.393C313.754,371.669,310.397,368.311,305.361,368.311z"/>
			<path d="M229.82,225.623c0-14.269-10.911-25.18-25.18-25.18s-25.18,10.911-25.18,25.18s10.911,25.18,25.18,25.18
				S229.82,239.892,229.82,225.623z M196.246,225.623c0-5.036,3.357-8.393,8.393-8.393s8.393,3.357,8.393,8.393
				c0,5.036-3.357,8.393-8.393,8.393S196.246,230.659,196.246,225.623z"/>
			<path d="M305.361,200.443c-14.269,0-25.18,10.911-25.18,25.18s10.911,25.18,25.18,25.18s25.18-10.911,25.18-25.18
				S319.629,200.443,305.361,200.443z M305.361,234.016c-5.036,0-8.393-3.357-8.393-8.393c0-5.036,3.357-8.393,8.393-8.393
				s8.393,3.357,8.393,8.393C313.754,230.659,310.397,234.016,305.361,234.016z"/>
			<path d="M204.639,175.262h100.721c5.036,0,8.393-3.357,8.393-8.393V49.361c0-5.036-3.357-8.393-8.393-8.393H204.639
				c-5.036,0-8.393,3.357-8.393,8.393v117.508C196.246,171.905,199.603,175.262,204.639,175.262z M213.033,57.754h83.934v100.721
				h-83.934V57.754z"/>
		</g>
	</g>
</g>
</svg>
